<svg xmlns="http://www.w3.org/2000/svg" viewBox="0 0 1200 800" role="img" aria-labelledby="t d"><title id="t">Recorrido histórico de la protección de datos</title><desc id="d">Composición editorial con muros antiguos, tarjetas perforadas y red institucional.</desc><defs><linearGradient id="bg" x1="0" y1="0" x2="1" y2="1"><stop stop-color="#fffdf9"/><stop offset="1" stop-color="#eef3f8"/></linearGradient><linearGradient id="r" x1="0" y1="0" x2="1" y2="1"><stop stop-color="#c74756"/><stop offset="1" stop-color="#f1b434"/></linearGradient><filter id="s" x="-20%" y="-20%" width="140%" height="140%"><feDropShadow dx="0" dy="18" stdDeviation="18" flood-color="#1f3d63" flood-opacity=".18"/></filter></defs><rect width="1200" height="800" fill="url(#bg)"/><circle cx="1010" cy="130" r="190" fill="#1f3d63" opacity=".06"/><circle cx="160" cy="680" r="220" fill="#c74756" opacity=".05"/><g filter="url(#s)"><rect x="90" y="115" width="520" height="285" rx="30" fill="#d6b487"/><path d="M110 165h480M110 220h480M110 275h480M110 330h480" stroke="#9b7845" stroke-width="8" opacity=".55"/><path d="M155 190c90-35 145 40 230 4s135-5 178 18" fill="none" stroke="#17385f" stroke-width="11" opacity=".35" stroke-linecap="round"/></g><g filter="url(#s)"><rect x="610" y="235" width="405" height="195" rx="24" fill="#fff"/><g fill="#17385f" opacity=".70"><circle cx="665" cy="285" r="9"/><circle cx="715" cy="285" r="9"/><circle cx="765" cy="285" r="9"/><circle cx="815" cy="285" r="9"/><circle cx="865" cy="285" r="9"/><circle cx="915" cy="285" r="9"/><circle cx="690" cy="335" r="9"/><circle cx="740" cy="335" r="9"/><circle cx="790" cy="335" r="9"/><circle cx="840" cy="335" r="9"/><circle cx="890" cy="335" r="9"/><circle cx="940" cy="335" r="9"/></g><path d="M635 390h340" stroke="#c74756" stroke-width="6" stroke-linecap="round"/></g><g filter="url(#s)"><rect x="245" y="435" width="670" height="230" rx="34" fill="#17385f"/><path d="M305 575c110-160 240-60 330-165 70 90 160 70 225 140" fill="none" stroke="url(#r)" stroke-width="18" stroke-linecap="round" stroke-linejoin="round"/><circle cx="305" cy="575" r="17" fill="#fff"/><circle cx="635" cy="410" r="17" fill="#fff"/><circle cx="860" cy="550" r="17" fill="#fff"/></g><text x="92" y="725" font-family="Inter, Arial, sans-serif" font-size="40" font-weight="800" fill="#17385f">Datos · automatización · garantías · control</text></svg>